<svg width="2560" height="1440" viewBox="0 0 2560 1440" fill="none" xmlns="http://www.w3.org/2000/svg">
<g id="bg_hero" clip-path="url(#clip0_3_2)">
<rect width="2560" height="1440" fill="#080707"/>
<path id="Ellipse 2" d="M1280 466.462C1280 779.819 1019.92 1360 740.157 1360C460.397 1360 40 960.743 40 647.385C40 334.027 266.791 80 546.551 80C826.311 80 1280 153.104 1280 466.462Z" fill="url(#paint0_linear_3_2)" fill-opacity="0.52"/>
<path id="Ellipse 3" d="M2580 641.222C2580 975.476 1971.93 1394 1665.1 1394C1358.26 1394 1338 737.347 1338 403.092C1338 68.8371 1717.58 36 2024.42 36C2331.26 36 2580 306.967 2580 641.222Z" fill="url(#paint1_linear_3_2)" fill-opacity="0.3"/>
<g id="bg-hero 1">
<path id="square3_3" d="M247.018 348.267L235.912 343.752C234.89 343.337 233.722 343.823 233.303 344.838L228.758 355.867C228.339 356.882 228.829 358.042 229.851 358.458L240.957 362.972C241.979 363.388 243.147 362.902 243.565 361.886L248.111 350.857C248.529 349.842 248.04 348.682 247.018 348.267Z" fill="#9760B0"/>
<path id="square3_3_2" d="M2414.02 460.267L2402.91 455.752C2401.89 455.337 2400.72 455.823 2400.3 456.838L2395.76 467.867C2395.34 468.882 2395.83 470.042 2396.85 470.458L2407.96 474.972C2408.98 475.388 2410.15 474.902 2410.57 473.886L2415.11 462.857C2415.53 461.842 2415.04 460.682 2414.02 460.267Z" fill="#9760B0"/>
<path id="square3_3_3" d="M501.018 1045.27L489.912 1040.75C488.89 1040.34 487.722 1040.82 487.303 1041.84L482.758 1052.87C482.339 1053.88 482.829 1055.04 483.851 1055.46L494.957 1059.97C495.979 1060.39 497.147 1059.9 497.565 1058.89L502.111 1047.86C502.529 1046.84 502.04 1045.68 501.018 1045.27Z" fill="#9760B0"/>
</g>
<path id="bg-heroline2" d="M0.544073 816C247.755 615.123 438.423 505.631 633.569 458.162C828.717 410.691 1028.39 425.232 1293.64 472.517L1293.78 471.583C1028.51 424.292 828.693 409.726 633.369 457.238C438.045 504.751 247.258 614.333 0 815.242L0.544073 816ZM1293.64 472.517C1740.16 552.118 2140.52 436.26 2520 146.769L2519.48 146C2140.17 435.36 1740.05 551.136 1293.78 471.583L1293.64 472.517Z" fill="#9760B0"/>
<path id="bg-heroline3" d="M-281.77 428.697C57.482 348.54 299.506 330.472 519.306 374.18C739.108 417.888 936.738 523.383 1187.19 690.458L1187.74 689.627C937.258 522.532 739.5 416.947 519.501 373.199C299.5 329.451 57.315 347.552 -282 427.724L-281.77 428.697ZM1187.19 690.458C1608.8 971.714 2067.73 1043.6 2580.34 938.719L2580.14 937.739C2067.75 1042.58 1609.11 970.717 1187.74 689.627L1187.19 690.458Z" fill="#9760B0"/>
<path id="bg-heroline1" d="M144.752 1394.21C374.325 1131.88 560.827 976.58 765.126 884.47C969.426 792.359 1191.57 763.42 1492.49 753.92L1492.45 752.92C1191.5 762.422 969.199 791.364 764.715 883.558C560.229 975.753 373.615 1131.18 144 1393.55L144.752 1394.21ZM1492.49 753.92C1999.05 737.927 2414.35 529.841 2770.67 146.681L2769.94 146C2413.78 528.989 1998.72 736.937 1492.45 752.92L1492.49 753.92Z" fill="#9760B0"/>
</g>
<defs>
<linearGradient id="paint0_linear_3_2" x1="802.644" y1="187.692" x2="802.644" y2="1322.46" gradientUnits="userSpaceOnUse">
<stop stop-color="#3F284A" stop-opacity="0"/>
<stop offset="1" stop-color="#9760B0"/>
</linearGradient>
<linearGradient id="paint1_linear_3_2" x1="1959" y1="36" x2="1959" y2="1394" gradientUnits="userSpaceOnUse">
<stop stop-color="#9760B0"/>
<stop offset="1" stop-color="#3F284A" stop-opacity="0"/>
</linearGradient>
<clipPath id="clip0_3_2">
<rect width="2560" height="1440" fill="white"/>
</clipPath>
</defs>
</svg>
